<svg width="16" height="16" viewBox="0 0 16 16" fill="none" xmlns="http://www.w3.org/2000/svg">
<path fill-rule="evenodd" clip-rule="evenodd" d="M2.10022 4.66667C2.10022 4.35371 2.35393 4.10001 2.66689 4.10001H13.3336C13.6465 4.10001 13.9002 4.35371 13.9002 4.66667C13.9002 4.97964 13.6465 5.23334 13.3336 5.23334H2.66689C2.35393 5.23334 2.10022 4.97964 2.10022 4.66667Z" fill="white"/>
<path fill-rule="evenodd" clip-rule="evenodd" d="M6.66689 6.76666C6.97983 6.76666 7.23356 7.0204 7.23356 7.33333V11.3333C7.23356 11.6463 6.97983 11.9 6.66689 11.9C6.35393 11.9 6.10022 11.6463 6.10022 11.3333V7.33333C6.10022 7.0204 6.35393 6.76666 6.66689 6.76666Z" fill="white"/>
<path fill-rule="evenodd" clip-rule="evenodd" d="M9.33363 6.76666C9.64657 6.76666 9.9003 7.0204 9.9003 7.33333V11.3333C9.9003 11.6463 9.64657 11.9 9.33363 11.9C9.02063 11.9 8.76697 11.6463 8.76697 11.3333V7.33333C8.76697 7.0204 9.02063 6.76666 9.33363 6.76666Z" fill="white"/>
<path fill-rule="evenodd" clip-rule="evenodd" d="M3.28661 4.10201C3.59849 4.07602 3.87239 4.30778 3.89838 4.61966L4.56504 12.6197C4.56635 12.6353 4.567 12.651 4.567 12.6667C4.567 12.8701 4.64778 13.0651 4.79156 13.2088C4.93533 13.3526 5.13034 13.4334 5.33367 13.4334H10.667C10.8703 13.4334 11.0653 13.3526 11.2091 13.2088C11.3529 13.0651 11.4336 12.8701 11.4336 12.6667C11.4336 12.651 11.4343 12.6353 11.4356 12.6197L12.1023 4.61966C12.1283 4.30778 12.4022 4.07602 12.714 4.10201C13.0259 4.128 13.2577 4.4019 13.2317 4.71378L12.5668 12.6923C12.5602 13.187 12.3608 13.6599 12.0105 14.0102C11.6542 14.3665 11.1709 14.5667 10.667 14.5667H5.33367C4.82976 14.5667 4.34648 14.3665 3.99016 14.0102C3.6399 13.6599 3.44051 13.187 3.43384 12.6923L2.76896 4.71378C2.74297 4.4019 2.97473 4.128 3.28661 4.10201Z" fill="white"/>
<path fill-rule="evenodd" clip-rule="evenodd" d="M6.66693 2.56668C6.64041 2.56668 6.61497 2.57722 6.59621 2.59598C6.57746 2.61473 6.56693 2.64016 6.56693 2.66668V4.66668C6.56693 4.97965 6.31322 5.23335 6.00026 5.23335C5.6873 5.23335 5.43359 4.97965 5.43359 4.66668V2.66668C5.43359 2.33958 5.56353 2.02588 5.79483 1.79459C6.02613 1.56329 6.33983 1.43335 6.66693 1.43335H9.3336C9.66067 1.43335 9.9744 1.56329 10.2057 1.79459C10.437 2.02588 10.5669 2.33958 10.5669 2.66668V4.66668C10.5669 4.97965 10.3132 5.23335 10.0003 5.23335C9.68727 5.23335 9.4336 4.97965 9.4336 4.66668V2.66668C9.4336 2.64016 9.42307 2.61473 9.40433 2.59598C9.38553 2.57722 9.36013 2.56668 9.3336 2.56668H6.66693Z" fill="white"/>
</svg>
